<?xml version="1.0" encoding="UTF-8" standalone="no"?>
<svg xmlns="http://www.w3.org/2000/svg"
     xmlns:xlink="http://www.w3.org/1999/xlink"
     width="1080pt" height="1080pt" viewBox="0 0 1080 1080">
<title>Geant4 output</title>
<desc>
Creator: GL2PS 1.4.2, (C) 1999-2020 C. Geuzaine
For: Geant4
CreationDate: Sun May 19 14:38:10 2024
</desc>
<defs>
</defs>
<polygon fill="#ffffff" points="0,0 1080,0 1080,1080 0,1080"/>
<g>
<polygon fill="#ff0000" shape-rendering="crispEdges" points="943.048,943.048 945.3,943.048 943.042,943.042"/>
<polygon fill="#db0000" shape-rendering="crispEdges" points="945.3,940.797 944.174,940.797 944.735,941.358"/>
<polygon fill="#db0000" shape-rendering="crispEdges" points="944.174,940.797 943.048,940.797 943.609,941.358"/>
<polygon fill="#e40000" shape-rendering="crispEdges" points="944.735,941.358 944.171,941.919 943.609,941.358"/>
<polygon fill="#db0000" shape-rendering="crispEdges" points="944.174,940.797 943.609,941.358 944.735,941.358"/>
<polygon fill="#db0000" shape-rendering="crispEdges" points="943.048,940.797 941.922,940.797 942.484,941.358"/>
<polygon fill="#db0000" shape-rendering="crispEdges" points="941.922,940.797 940.797,940.797 941.358,941.358"/>
<polygon fill="#e40000" shape-rendering="crispEdges" points="942.484,941.358 941.919,941.919 941.358,941.358"/>
<polygon fill="#db0000" shape-rendering="crispEdges" points="941.922,940.797 941.358,941.358 942.484,941.358"/>
<polygon fill="#ed0000" shape-rendering="crispEdges" points="944.171,941.919 943.606,942.48 943.045,941.919"/>
<polygon fill="#f60000" shape-rendering="crispEdges" points="943.606,942.48 943.042,943.042 942.48,942.48"/>
<polygon fill="#ed0000" shape-rendering="crispEdges" points="943.045,941.919 941.919,941.919 942.48,942.48"/>
<polygon fill="#f60000" shape-rendering="crispEdges" points="943.606,942.48 942.48,942.48 943.045,941.919"/>
<polygon fill="#db0000" shape-rendering="crispEdges" points="943.048,940.797 942.484,941.358 943.609,941.358"/>
<polygon fill="#e40000" shape-rendering="crispEdges" points="942.484,941.358 941.919,941.919 943.045,941.919"/>
<polygon fill="#e40000" shape-rendering="crispEdges" points="943.609,941.358 944.171,941.919 943.045,941.919"/>
<polygon fill="#e40000" shape-rendering="crispEdges" points="942.484,941.358 943.045,941.919 943.609,941.358"/>
<polygon fill="#db0000" shape-rendering="crispEdges" points="945.3,940.797 944.735,941.358 945.3,941.359"/>
<polygon fill="#e40000" shape-rendering="crispEdges" points="944.735,941.358 944.171,941.919 944.735,941.921"/>
<polygon fill="#e40000" shape-rendering="crispEdges" points="945.3,941.359 945.3,941.922 944.735,941.921"/>
<polygon fill="#e40000" shape-rendering="crispEdges" points="944.735,941.358 944.735,941.921 945.3,941.359"/>
<polygon fill="#ed0000" shape-rendering="crispEdges" points="944.171,941.919 943.606,942.48 944.171,942.482"/>
<polygon fill="#f60000" shape-rendering="crispEdges" points="943.606,942.48 943.042,943.042 943.606,943.043"/>
<polygon fill="#f60000" shape-rendering="crispEdges" points="944.171,942.482 944.171,943.045 943.606,943.043"/>
<polygon fill="#f60000" shape-rendering="crispEdges" points="943.606,942.48 943.606,943.043 944.171,942.482"/>
<polygon fill="#ed0000" shape-rendering="crispEdges" points="945.3,941.922 945.3,942.485 944.735,942.484"/>
<polygon fill="#f60000" shape-rendering="crispEdges" points="945.3,942.485 945.3,943.048 944.735,943.047"/>
<polygon fill="#f60000" shape-rendering="crispEdges" points="944.735,942.484 944.171,943.045 944.735,943.047"/>
<polygon fill="#f60000" shape-rendering="crispEdges" points="945.3,942.485 944.735,943.047 944.735,942.484"/>
<polygon fill="#ed0000" shape-rendering="crispEdges" points="944.171,941.919 944.171,942.482 944.735,941.921"/>
<polygon fill="#f60000" shape-rendering="crispEdges" points="944.171,942.482 944.171,943.045 944.735,942.484"/>
<polygon fill="#ed0000" shape-rendering="crispEdges" points="944.735,941.921 945.3,941.922 944.735,942.484"/>
<polygon fill="#f60000" shape-rendering="crispEdges" points="944.171,942.482 944.735,942.484 944.735,941.921"/>
<polygon fill="#0000db" shape-rendering="crispEdges" points="940.797,790.165 940.797,945.3 941.249,790.531"/>
<polygon fill="#0000ff" shape-rendering="crispEdges" points="943.048,945.3 943.048,868.642 942.149,867.915"/>
<polygon fill="#0000ff" shape-rendering="crispEdges" points="943.048,868.642 943.048,791.984 942.149,791.257"/>
<polygon fill="#0000f0" shape-rendering="crispEdges" points="942.149,867.915 941.249,790.531 942.149,791.257"/>
<polygon fill="#0000ff" shape-rendering="crispEdges" points="943.048,868.642 942.149,791.257 942.149,867.915"/>
<polygon fill="#0000ff" shape-rendering="crispEdges" points="943.048,945.3 942.149,867.915 941.922,945.3"/>
<polygon fill="#0000f0" shape-rendering="crispEdges" points="942.149,867.915 941.249,790.531 941.023,867.915"/>
<polygon fill="#0000ed" shape-rendering="crispEdges" points="941.922,945.3 940.797,945.3 941.023,867.915"/>
<polygon fill="#0000f0" shape-rendering="crispEdges" points="942.149,867.915 941.023,867.915 941.922,945.3"/>
<polygon fill="#ff0000" shape-rendering="crispEdges" points="943.048,943.048 943.047,943.047 751.094,942.485"/>
<polygon fill="#fe0000" shape-rendering="crispEdges" points="943.047,943.047 943.045,943.045 751.092,942.484"/>
<polygon fill="#f60000" shape-rendering="crispEdges" points="751.094,942.485 559.139,941.922 751.092,942.484"/>
<polygon fill="#fe0000" shape-rendering="crispEdges" points="943.047,943.047 751.092,942.484 751.094,942.485"/>
<polygon fill="#fe0000" shape-rendering="crispEdges" points="943.045,943.045 943.043,943.043 751.09,942.482"/>
<polygon fill="#fe0000" shape-rendering="crispEdges" points="943.043,943.043 943.042,943.042 751.089,942.48"/>
<polygon fill="#f60000" shape-rendering="crispEdges" points="751.09,942.482 559.136,941.919 751.089,942.48"/>
<polygon fill="#fe0000" shape-rendering="crispEdges" points="943.043,943.043 751.089,942.48 751.09,942.482"/>
<polygon fill="#ed0000" shape-rendering="crispEdges" points="559.139,941.922 367.185,941.359 559.138,941.921"/>
<polygon fill="#e40000" shape-rendering="crispEdges" points="367.185,941.359 175.23,940.797 367.183,941.358"/>
<polygon fill="#ed0000" shape-rendering="crispEdges" points="559.138,941.921 559.136,941.919 367.183,941.358"/>
<polygon fill="#e40000" shape-rendering="crispEdges" points="367.185,941.359 367.183,941.358 559.138,941.921"/>
<polygon fill="#fe0000" shape-rendering="crispEdges" points="943.045,943.045 751.09,942.482 751.092,942.484"/>
<polygon fill="#f60000" shape-rendering="crispEdges" points="751.09,942.482 559.136,941.919 559.138,941.921"/>
<polygon fill="#f60000" shape-rendering="crispEdges" points="751.092,942.484 559.139,941.922 559.138,941.921"/>
<polygon fill="#f60000" shape-rendering="crispEdges" points="751.09,942.482 559.138,941.921 751.092,942.484"/>
<polygon fill="#ff0000" shape-rendering="crispEdges" points="943.048,943.048 751.094,942.485 751.094,943.048"/>
<polygon fill="#f60000" shape-rendering="crispEdges" points="751.094,942.485 559.139,941.922 559.139,942.485"/>
<polygon fill="#ff0000" shape-rendering="crispEdges" points="751.094,943.048 559.139,943.048 559.139,942.485"/>
<polygon fill="#f60000" shape-rendering="crispEdges" points="751.094,942.485 559.139,942.485 751.094,943.048"/>
<polygon fill="#ed0000" shape-rendering="crispEdges" points="559.139,941.922 367.185,941.359 367.185,941.922"/>
<polygon fill="#e40000" shape-rendering="crispEdges" points="367.185,941.359 175.23,940.797 175.23,941.359"/>
<polygon fill="#ed0000" shape-rendering="crispEdges" points="367.185,941.922 175.23,941.922 175.23,941.359"/>
<polygon fill="#e40000" shape-rendering="crispEdges" points="367.185,941.359 175.23,941.359 367.185,941.922"/>
<polygon fill="#ff0000" shape-rendering="crispEdges" points="559.139,943.048 367.185,943.048 367.185,942.485"/>
<polygon fill="#ff0000" shape-rendering="crispEdges" points="367.185,943.048 175.23,943.048 175.23,942.485"/>
<polygon fill="#f60000" shape-rendering="crispEdges" points="367.185,942.485 175.23,941.922 175.23,942.485"/>
<polygon fill="#ff0000" shape-rendering="crispEdges" points="367.185,943.048 175.23,942.485 367.185,942.485"/>
<polygon fill="#ed0000" shape-rendering="crispEdges" points="559.139,941.922 367.185,941.922 559.139,942.485"/>
<polygon fill="#ed0000" shape-rendering="crispEdges" points="367.185,941.922 175.23,941.922 367.185,942.485"/>
<polygon fill="#f60000" shape-rendering="crispEdges" points="559.139,942.485 559.139,943.048 367.185,942.485"/>
<polygon fill="#ed0000" shape-rendering="crispEdges" points="367.185,941.922 367.185,942.485 559.139,942.485"/>
<polygon fill="#db0000" shape-rendering="crispEdges" points="940.797,940.797 749.405,940.797 941.358,941.358"/>
<polygon fill="#db0000" shape-rendering="crispEdges" points="749.405,940.797 558.013,940.797 749.966,941.358"/>
<polygon fill="#e40000" shape-rendering="crispEdges" points="941.358,941.358 941.919,941.919 749.966,941.358"/>
<polygon fill="#db0000" shape-rendering="crispEdges" points="749.405,940.797 749.966,941.358 941.358,941.358"/>
<polygon fill="#db0000" shape-rendering="crispEdges" points="558.013,940.797 366.622,940.797 558.575,941.358"/>
<polygon fill="#db0000" shape-rendering="crispEdges" points="366.622,940.797 175.23,940.797 367.183,941.358"/>
<polygon fill="#e40000" shape-rendering="crispEdges" points="558.575,941.358 559.136,941.919 367.183,941.358"/>
<polygon fill="#db0000" shape-rendering="crispEdges" points="366.622,940.797 367.183,941.358 558.575,941.358"/>
<polygon fill="#ed0000" shape-rendering="crispEdges" points="941.919,941.919 942.48,942.48 750.527,941.919"/>
<polygon fill="#f60000" shape-rendering="crispEdges" points="942.48,942.48 943.042,943.042 751.089,942.48"/>
<polygon fill="#ed0000" shape-rendering="crispEdges" points="750.527,941.919 559.136,941.919 751.089,942.48"/>
<polygon fill="#f60000" shape-rendering="crispEdges" points="942.48,942.48 751.089,942.48 750.527,941.919"/>
<polygon fill="#db0000" shape-rendering="crispEdges" points="558.013,940.797 558.575,941.358 749.966,941.358"/>
<polygon fill="#e40000" shape-rendering="crispEdges" points="558.575,941.358 559.136,941.919 750.527,941.919"/>
<polygon fill="#e40000" shape-rendering="crispEdges" points="749.966,941.358 941.919,941.919 750.527,941.919"/>
<polygon fill="#e40000" shape-rendering="crispEdges" points="558.575,941.358 750.527,941.919 749.966,941.358"/>
<polygon fill="#ff0000" shape-rendering="crispEdges" points="175.23,939.752 175.23,933.6 134.7,945.3"/>
<polygon fill="#ff0000" shape-rendering="crispEdges" points="175.23,939.752 134.7,945.3 149.535,944.697"/>
<polygon fill="#ff0000" shape-rendering="crispEdges" points="149.535,944.697 134.7,945.3 146.4,945.3"/>
<polygon fill="#0000db" shape-rendering="crispEdges" points="940.797,790.165 941.023,790.348 941.922,482.698"/>
<polygon fill="#0000df" shape-rendering="crispEdges" points="941.023,790.348 941.249,790.531 942.149,482.88"/>
<polygon fill="#0000ed" shape-rendering="crispEdges" points="941.922,482.698 943.048,175.23 942.149,482.88"/>
<polygon fill="#0000df" shape-rendering="crispEdges" points="941.023,790.348 942.149,482.88 941.922,482.698"/>
<polygon fill="#0000db" shape-rendering="crispEdges" points="940.797,790.165 941.922,482.698 940.797,482.698"/>
<polygon fill="#0000ed" shape-rendering="crispEdges" points="941.922,482.698 943.048,175.23 941.922,175.23"/>
<polygon fill="#0000db" shape-rendering="crispEdges" points="940.797,482.698 940.797,175.23 941.922,175.23"/>
<polygon fill="#0000ed" shape-rendering="crispEdges" points="941.922,482.698 941.922,175.23 940.797,482.698"/>
<polygon fill="#0000ff" shape-rendering="crispEdges" points="943.048,791.984 943.048,483.607 942.149,791.257"/>
<polygon fill="#0000ff" shape-rendering="crispEdges" points="943.048,483.607 943.048,175.23 942.149,482.88"/>
<polygon fill="#0000f0" shape-rendering="crispEdges" points="942.149,791.257 941.249,790.531 942.149,482.88"/>
<polygon fill="#0000ff" shape-rendering="crispEdges" points="943.048,483.607 942.149,482.88 942.149,791.257"/>
<polygon fill="#0000ff" shape-rendering="crispEdges" points="939.752,175.23 945.3,146.4 945.3,134.7"/>
<polygon fill="#0000ff" shape-rendering="crispEdges" points="939.752,175.23 945.3,134.7 933.6,175.23"/>
<polygon fill="#000066" shape-rendering="crispEdges" points="952.055,158.1 945.3,134.7 948.503,158.1"/>
<polygon fill="#000065" shape-rendering="crispEdges" points="948.503,158.1 945.3,134.7 945.3,146.4"/>
<polygon fill="#000065" shape-rendering="crispEdges" points="948.503,158.1 945.3,146.4 947.552,158.1"/>
<polygon fill="#000091" shape-rendering="crispEdges" points="947.552,175.23 947.552,560.265 948.677,175.23"/>
<polygon fill="#000091" shape-rendering="crispEdges" points="947.552,560.265 947.552,945.3 948.677,560.265"/>
<polygon fill="#00007b" shape-rendering="crispEdges" points="948.677,175.23 949.803,175.23 948.677,560.265"/>
<polygon fill="#000091" shape-rendering="crispEdges" points="947.552,560.265 948.677,560.265 948.677,175.23"/>
<polygon fill="#000091" shape-rendering="crispEdges" points="947.552,945.3 948.677,945.3 948.677,560.265"/>
<polygon fill="#00007b" shape-rendering="crispEdges" points="948.677,945.3 949.803,945.3 949.803,560.265"/>
<polygon fill="#00007b" shape-rendering="crispEdges" points="948.677,560.265 949.803,175.23 949.803,560.265"/>
<polygon fill="#00007b" shape-rendering="crispEdges" points="948.677,945.3 949.803,560.265 948.677,560.265"/>
<polygon fill="#000066" shape-rendering="crispEdges" points="957,175.23 952.055,158.1 948.503,158.1"/>
<polygon fill="#000066" shape-rendering="crispEdges" points="957,175.23 948.503,158.1 950.848,175.23"/>
<polygon fill="#000065" shape-rendering="crispEdges" points="948.503,158.1 947.552,158.1 950.848,175.23"/>
<polygon fill="#910000" shape-rendering="crispEdges" points="175.23,947.552 271.489,947.552 175.23,946.989"/>
<polygon fill="#910000" shape-rendering="crispEdges" points="271.489,947.552 367.748,947.552 271.489,946.989"/>
<polygon fill="#9e0000" shape-rendering="crispEdges" points="175.23,946.989 175.23,946.426 271.489,946.989"/>
<polygon fill="#910000" shape-rendering="crispEdges" points="271.489,947.552 271.489,946.989 175.23,946.989"/>
<polygon fill="#910000" shape-rendering="crispEdges" points="367.748,947.552 464.006,947.552 367.748,946.989"/>
<polygon fill="#910000" shape-rendering="crispEdges" points="464.006,947.552 560.265,947.552 464.006,946.989"/>
<polygon fill="#9e0000" shape-rendering="crispEdges" points="367.748,946.989 367.748,946.426 464.006,946.989"/>
<polygon fill="#910000" shape-rendering="crispEdges" points="464.006,947.552 464.006,946.989 367.748,946.989"/>
<polygon fill="#ac0000" shape-rendering="crispEdges" points="175.23,946.426 175.23,945.863 271.489,946.426"/>
<polygon fill="#ba0000" shape-rendering="crispEdges" points="175.23,945.863 175.23,945.3 271.489,945.863"/>
<polygon fill="#ac0000" shape-rendering="crispEdges" points="271.489,946.426 367.748,946.426 271.489,945.863"/>
<polygon fill="#ba0000" shape-rendering="crispEdges" points="175.23,945.863 271.489,945.863 271.489,946.426"/>
<polygon fill="#910000" shape-rendering="crispEdges" points="367.748,947.552 367.748,946.989 271.489,946.989"/>
<polygon fill="#9e0000" shape-rendering="crispEdges" points="367.748,946.989 367.748,946.426 271.489,946.426"/>
<polygon fill="#9e0000" shape-rendering="crispEdges" points="271.489,946.989 175.23,946.426 271.489,946.426"/>
<polygon fill="#9e0000" shape-rendering="crispEdges" points="367.748,946.989 271.489,946.426 271.489,946.989"/>
<polygon fill="#910000" shape-rendering="crispEdges" points="560.265,947.552 656.524,947.552 560.265,946.989"/>
<polygon fill="#910000" shape-rendering="crispEdges" points="656.524,947.552 752.782,947.552 656.524,946.989"/>
<polygon fill="#9e0000" shape-rendering="crispEdges" points="560.265,946.989 560.265,946.426 656.524,946.989"/>
<polygon fill="#910000" shape-rendering="crispEdges" points="656.524,947.552 656.524,946.989 560.265,946.989"/>
<polygon fill="#910000" shape-rendering="crispEdges" points="752.782,947.552 849.041,947.552 752.782,946.989"/>
<polygon fill="#910000" shape-rendering="crispEdges" points="849.041,947.552 945.3,947.552 849.041,946.989"/>
<polygon fill="#9e0000" shape-rendering="crispEdges" points="752.782,946.989 752.782,946.426 849.041,946.989"/>
<polygon fill="#910000" shape-rendering="crispEdges" points="849.041,947.552 849.041,946.989 752.782,946.989"/>
<polygon fill="#ac0000" shape-rendering="crispEdges" points="560.265,946.426 560.265,945.863 656.524,946.426"/>
<polygon fill="#ba0000" shape-rendering="crispEdges" points="560.265,945.863 560.265,945.3 656.524,945.863"/>
<polygon fill="#ac0000" shape-rendering="crispEdges" points="656.524,946.426 752.782,946.426 656.524,945.863"/>
<polygon fill="#ba0000" shape-rendering="crispEdges" points="560.265,945.863 656.524,945.863 656.524,946.426"/>
<polygon fill="#910000" shape-rendering="crispEdges" points="752.782,947.552 752.782,946.989 656.524,946.989"/>
<polygon fill="#9e0000" shape-rendering="crispEdges" points="752.782,946.989 752.782,946.426 656.524,946.426"/>
<polygon fill="#9e0000" shape-rendering="crispEdges" points="656.524,946.989 560.265,946.426 656.524,946.426"/>
<polygon fill="#9e0000" shape-rendering="crispEdges" points="752.782,946.989 656.524,946.426 656.524,946.989"/>
<polygon fill="#c80000" shape-rendering="crispEdges" points="175.23,945.3 175.23,944.737 271.489,945.3"/>
<polygon fill="#d50000" shape-rendering="crispEdges" points="175.23,944.737 175.23,944.174 271.489,944.737"/>
<polygon fill="#c80000" shape-rendering="crispEdges" points="271.489,945.3 367.748,945.3 271.489,944.737"/>
<polygon fill="#d50000" shape-rendering="crispEdges" points="175.23,944.737 271.489,944.737 271.489,945.3"/>
<polygon fill="#e30000" shape-rendering="crispEdges" points="175.23,944.174 175.23,943.611 271.489,944.174"/>
<polygon fill="#f10000" shape-rendering="crispEdges" points="175.23,943.611 175.23,943.048 271.489,943.611"/>
<polygon fill="#e30000" shape-rendering="crispEdges" points="271.489,944.174 367.748,944.174 271.489,943.611"/>
<polygon fill="#f10000" shape-rendering="crispEdges" points="175.23,943.611 271.489,943.611 271.489,944.174"/>
<polygon fill="#c80000" shape-rendering="crispEdges" points="367.748,945.3 464.006,945.3 367.748,944.737"/>
<polygon fill="#c80000" shape-rendering="crispEdges" points="464.006,945.3 560.265,945.3 464.006,944.737"/>
<polygon fill="#d50000" shape-rendering="crispEdges" points="367.748,944.737 367.748,944.174 464.006,944.737"/>
<polygon fill="#c80000" shape-rendering="crispEdges" points="464.006,945.3 464.006,944.737 367.748,944.737"/>
<polygon fill="#e30000" shape-rendering="crispEdges" points="175.23,944.174 271.489,944.174 271.489,944.737"/>
<polygon fill="#e30000" shape-rendering="crispEdges" points="271.489,944.174 367.748,944.174 367.748,944.737"/>
<polygon fill="#d50000" shape-rendering="crispEdges" points="271.489,944.737 367.748,945.3 367.748,944.737"/>
<polygon fill="#e30000" shape-rendering="crispEdges" points="271.489,944.174 367.748,944.737 271.489,944.737"/>
<polygon fill="#910000" shape-rendering="crispEdges" points="560.265,947.552 560.265,946.989 464.006,946.989"/>
<polygon fill="#9e0000" shape-rendering="crispEdges" points="560.265,946.989 560.265,946.426 464.006,946.426"/>
<polygon fill="#9e0000" shape-rendering="crispEdges" points="464.006,946.989 367.748,946.426 464.006,946.426"/>
<polygon fill="#9e0000" shape-rendering="crispEdges" points="560.265,946.989 464.006,946.426 464.006,946.989"/>
<polygon fill="#ac0000" shape-rendering="crispEdges" points="560.265,946.426 560.265,945.863 464.006,945.863"/>
<polygon fill="#ba0000" shape-rendering="crispEdges" points="560.265,945.863 560.265,945.3 464.006,945.3"/>
<polygon fill="#ba0000" shape-rendering="crispEdges" points="464.006,945.863 367.748,945.3 464.006,945.3"/>
<polygon fill="#ba0000" shape-rendering="crispEdges" points="560.265,945.863 464.006,945.3 464.006,945.863"/>
<polygon fill="#ac0000" shape-rendering="crispEdges" points="367.748,946.426 271.489,945.863 367.748,945.863"/>
<polygon fill="#ba0000" shape-rendering="crispEdges" points="271.489,945.863 175.23,945.3 271.489,945.3"/>
<polygon fill="#ba0000" shape-rendering="crispEdges" points="367.748,945.863 367.748,945.3 271.489,945.3"/>
<polygon fill="#ba0000" shape-rendering="crispEdges" points="271.489,945.863 271.489,945.3 367.748,945.863"/>
<polygon fill="#ac0000" shape-rendering="crispEdges" points="560.265,946.426 464.006,945.863 464.006,946.426"/>
<polygon fill="#ba0000" shape-rendering="crispEdges" points="464.006,945.863 367.748,945.3 367.748,945.863"/>
<polygon fill="#ac0000" shape-rendering="crispEdges" points="464.006,946.426 367.748,946.426 367.748,945.863"/>
<polygon fill="#ba0000" shape-rendering="crispEdges" points="464.006,945.863 367.748,945.863 464.006,946.426"/>
<polygon fill="#910000" shape-rendering="crispEdges" points="945.3,947.552 945.3,946.989 849.041,946.989"/>
<polygon fill="#9e0000" shape-rendering="crispEdges" points="945.3,946.989 945.3,946.426 849.041,946.426"/>
<polygon fill="#9e0000" shape-rendering="crispEdges" points="849.041,946.989 752.782,946.426 849.041,946.426"/>
<polygon fill="#9e0000" shape-rendering="crispEdges" points="945.3,946.989 849.041,946.426 849.041,946.989"/>
<polygon fill="#ac0000" shape-rendering="crispEdges" points="945.3,946.426 945.3,945.863 849.041,945.863"/>
<polygon fill="#ba0000" shape-rendering="crispEdges" points="945.3,945.863 945.3,945.3 849.041,945.3"/>
<polygon fill="#ba0000" shape-rendering="crispEdges" points="849.041,945.863 752.782,945.3 849.041,945.3"/>
<polygon fill="#ba0000" shape-rendering="crispEdges" points="945.3,945.863 849.041,945.3 849.041,945.863"/>
<polygon fill="#ac0000" shape-rendering="crispEdges" points="752.782,946.426 656.524,945.863 752.782,945.863"/>
<polygon fill="#ba0000" shape-rendering="crispEdges" points="656.524,945.863 560.265,945.3 656.524,945.3"/>
<polygon fill="#ba0000" shape-rendering="crispEdges" points="752.782,945.863 752.782,945.3 656.524,945.3"/>
<polygon fill="#ba0000" shape-rendering="crispEdges" points="656.524,945.863 656.524,945.3 752.782,945.863"/>
<polygon fill="#ac0000" shape-rendering="crispEdges" points="945.3,946.426 849.041,945.863 849.041,946.426"/>
<polygon fill="#ba0000" shape-rendering="crispEdges" points="849.041,945.863 752.782,945.3 752.782,945.863"/>
<polygon fill="#ac0000" shape-rendering="crispEdges" points="849.041,946.426 752.782,946.426 752.782,945.863"/>
<polygon fill="#ba0000" shape-rendering="crispEdges" points="849.041,945.863 752.782,945.863 849.041,946.426"/>
<polygon fill="#c80000" shape-rendering="crispEdges" points="945.3,945.3 945.3,944.737 849.041,944.737"/>
<polygon fill="#d50000" shape-rendering="crispEdges" points="945.3,944.737 945.3,944.174 849.041,944.174"/>
<polygon fill="#d50000" shape-rendering="crispEdges" points="849.041,944.737 752.782,944.174 849.041,944.174"/>
<polygon fill="#d50000" shape-rendering="crispEdges" points="945.3,944.737 849.041,944.174 849.041,944.737"/>
<polygon fill="#e30000" shape-rendering="crispEdges" points="945.3,944.174 945.3,943.611 849.041,943.611"/>
<polygon fill="#f10000" shape-rendering="crispEdges" points="945.3,943.611 945.3,943.048 849.041,943.048"/>
<polygon fill="#f10000" shape-rendering="crispEdges" points="849.041,943.611 752.782,943.048 849.041,943.048"/>
<polygon fill="#f10000" shape-rendering="crispEdges" points="945.3,943.611 849.041,943.048 849.041,943.611"/>
<polygon fill="#e30000" shape-rendering="crispEdges" points="752.782,944.174 656.524,943.611 752.782,943.611"/>
<polygon fill="#f10000" shape-rendering="crispEdges" points="656.524,943.611 560.265,943.048 656.524,943.048"/>
<polygon fill="#f10000" shape-rendering="crispEdges" points="752.782,943.611 752.782,943.048 656.524,943.048"/>
<polygon fill="#f10000" shape-rendering="crispEdges" points="656.524,943.611 656.524,943.048 752.782,943.611"/>
<polygon fill="#e30000" shape-rendering="crispEdges" points="945.3,944.174 849.041,943.611 849.041,944.174"/>
<polygon fill="#f10000" shape-rendering="crispEdges" points="849.041,943.611 752.782,943.048 752.782,943.611"/>
<polygon fill="#e30000" shape-rendering="crispEdges" points="849.041,944.174 752.782,944.174 752.782,943.611"/>
<polygon fill="#f10000" shape-rendering="crispEdges" points="849.041,943.611 752.782,943.611 849.041,944.174"/>
<polygon fill="#c80000" shape-rendering="crispEdges" points="560.265,945.3 464.006,944.737 560.265,944.737"/>
<polygon fill="#d50000" shape-rendering="crispEdges" points="464.006,944.737 367.748,944.174 464.006,944.174"/>
<polygon fill="#d50000" shape-rendering="crispEdges" points="560.265,944.737 560.265,944.174 464.006,944.174"/>
<polygon fill="#d50000" shape-rendering="crispEdges" points="464.006,944.737 464.006,944.174 560.265,944.737"/>
<polygon fill="#e30000" shape-rendering="crispEdges" points="367.748,944.174 271.489,943.611 367.748,943.611"/>
<polygon fill="#f10000" shape-rendering="crispEdges" points="271.489,943.611 175.23,943.048 271.489,943.048"/>
<polygon fill="#f10000" shape-rendering="crispEdges" points="367.748,943.611 367.748,943.048 271.489,943.048"/>
<polygon fill="#f10000" shape-rendering="crispEdges" points="271.489,943.611 271.489,943.048 367.748,943.611"/>
<polygon fill="#e30000" shape-rendering="crispEdges" points="560.265,944.174 560.265,943.611 464.006,943.611"/>
<polygon fill="#f10000" shape-rendering="crispEdges" points="560.265,943.611 560.265,943.048 464.006,943.048"/>
<polygon fill="#f10000" shape-rendering="crispEdges" points="464.006,943.611 367.748,943.048 464.006,943.048"/>
<polygon fill="#f10000" shape-rendering="crispEdges" points="560.265,943.611 464.006,943.048 464.006,943.611"/>
<polygon fill="#e30000" shape-rendering="crispEdges" points="367.748,944.174 367.748,943.611 464.006,944.174"/>
<polygon fill="#f10000" shape-rendering="crispEdges" points="367.748,943.611 367.748,943.048 464.006,943.611"/>
<polygon fill="#e30000" shape-rendering="crispEdges" points="464.006,944.174 560.265,944.174 464.006,943.611"/>
<polygon fill="#f10000" shape-rendering="crispEdges" points="367.748,943.611 464.006,943.611 464.006,944.174"/>
<polygon fill="#c80000" shape-rendering="crispEdges" points="945.3,945.3 849.041,944.737 849.041,945.3"/>
<polygon fill="#d50000" shape-rendering="crispEdges" points="849.041,944.737 752.782,944.174 752.782,944.737"/>
<polygon fill="#c80000" shape-rendering="crispEdges" points="849.041,945.3 752.782,945.3 752.782,944.737"/>
<polygon fill="#d50000" shape-rendering="crispEdges" points="849.041,944.737 752.782,944.737 849.041,945.3"/>
<polygon fill="#e30000" shape-rendering="crispEdges" points="752.782,944.174 656.524,943.611 656.524,944.174"/>
<polygon fill="#f10000" shape-rendering="crispEdges" points="656.524,943.611 560.265,943.048 560.265,943.611"/>
<polygon fill="#e30000" shape-rendering="crispEdges" points="656.524,944.174 560.265,944.174 560.265,943.611"/>
<polygon fill="#f10000" shape-rendering="crispEdges" points="656.524,943.611 560.265,943.611 656.524,944.174"/>
<polygon fill="#c80000" shape-rendering="crispEdges" points="752.782,945.3 656.524,945.3 656.524,944.737"/>
<polygon fill="#c80000" shape-rendering="crispEdges" points="656.524,945.3 560.265,945.3 560.265,944.737"/>
<polygon fill="#d50000" shape-rendering="crispEdges" points="656.524,944.737 560.265,944.174 560.265,944.737"/>
<polygon fill="#c80000" shape-rendering="crispEdges" points="656.524,945.3 560.265,944.737 656.524,944.737"/>
<polygon fill="#e30000" shape-rendering="crispEdges" points="752.782,944.174 656.524,944.174 752.782,944.737"/>
<polygon fill="#e30000" shape-rendering="crispEdges" points="656.524,944.174 560.265,944.174 656.524,944.737"/>
<polygon fill="#d50000" shape-rendering="crispEdges" points="752.782,944.737 752.782,945.3 656.524,944.737"/>
<polygon fill="#e30000" shape-rendering="crispEdges" points="656.524,944.174 656.524,944.737 752.782,944.737"/>
<polygon fill="#0000ff" shape-rendering="crispEdges" points="943.048,175.23 943.048,271.489 943.611,175.23"/>
<polygon fill="#0000ff" shape-rendering="crispEdges" points="943.048,271.489 943.048,367.748 943.611,271.489"/>
<polygon fill="#0000f1" shape-rendering="crispEdges" points="943.611,175.23 944.174,175.23 943.611,271.489"/>
<polygon fill="#0000ff" shape-rendering="crispEdges" points="943.048,271.489 943.611,271.489 943.611,175.23"/>
<polygon fill="#0000ff" shape-rendering="crispEdges" points="943.048,367.748 943.048,464.006 943.611,367.748"/>
<polygon fill="#0000ff" shape-rendering="crispEdges" points="943.048,464.006 943.048,560.265 943.611,464.006"/>
<polygon fill="#0000f1" shape-rendering="crispEdges" points="943.611,367.748 944.174,367.748 943.611,464.006"/>
<polygon fill="#0000ff" shape-rendering="crispEdges" points="943.048,464.006 943.611,464.006 943.611,367.748"/>
<polygon fill="#0000e3" shape-rendering="crispEdges" points="944.174,175.23 944.737,175.23 944.174,271.489"/>
<polygon fill="#0000d5" shape-rendering="crispEdges" points="944.737,175.23 945.3,175.23 944.737,271.489"/>
<polygon fill="#0000e3" shape-rendering="crispEdges" points="944.174,271.489 944.174,367.748 944.737,271.489"/>
<polygon fill="#0000d5" shape-rendering="crispEdges" points="944.737,175.23 944.737,271.489 944.174,271.489"/>
<polygon fill="#0000ff" shape-rendering="crispEdges" points="943.048,367.748 943.611,367.748 943.611,271.489"/>
<polygon fill="#0000f1" shape-rendering="crispEdges" points="943.611,367.748 944.174,367.748 944.174,271.489"/>
<polygon fill="#0000f1" shape-rendering="crispEdges" points="943.611,271.489 944.174,175.23 944.174,271.489"/>
<polygon fill="#0000f1" shape-rendering="crispEdges" points="943.611,367.748 944.174,271.489 943.611,271.489"/>
<polygon fill="#0000ff" shape-rendering="crispEdges" points="943.048,560.265 943.048,656.524 943.611,560.265"/>
<polygon fill="#0000ff" shape-rendering="crispEdges" points="943.048,656.524 943.048,752.782 943.611,656.524"/>
<polygon fill="#0000f1" shape-rendering="crispEdges" points="943.611,560.265 944.174,560.265 943.611,656.524"/>
<polygon fill="#0000ff" shape-rendering="crispEdges" points="943.048,656.524 943.611,656.524 943.611,560.265"/>
<polygon fill="#0000ff" shape-rendering="crispEdges" points="943.048,752.782 943.048,849.041 943.611,752.782"/>
<polygon fill="#0000ff" shape-rendering="crispEdges" points="943.048,849.041 943.048,945.3 943.611,849.041"/>
<polygon fill="#0000f1" shape-rendering="crispEdges" points="943.611,752.782 944.174,752.782 943.611,849.041"/>
<polygon fill="#0000ff" shape-rendering="crispEdges" points="943.048,849.041 943.611,849.041 943.611,752.782"/>
<polygon fill="#0000e3" shape-rendering="crispEdges" points="944.174,560.265 944.737,560.265 944.174,656.524"/>
<polygon fill="#0000d5" shape-rendering="crispEdges" points="944.737,560.265 945.3,560.265 944.737,656.524"/>
<polygon fill="#0000e3" shape-rendering="crispEdges" points="944.174,656.524 944.174,752.782 944.737,656.524"/>
<polygon fill="#0000d5" shape-rendering="crispEdges" points="944.737,560.265 944.737,656.524 944.174,656.524"/>
<polygon fill="#0000ff" shape-rendering="crispEdges" points="943.048,752.782 943.611,752.782 943.611,656.524"/>
<polygon fill="#0000f1" shape-rendering="crispEdges" points="943.611,752.782 944.174,752.782 944.174,656.524"/>
<polygon fill="#0000f1" shape-rendering="crispEdges" points="943.611,656.524 944.174,560.265 944.174,656.524"/>
<polygon fill="#0000f1" shape-rendering="crispEdges" points="943.611,752.782 944.174,656.524 943.611,656.524"/>
<polygon fill="#0000c8" shape-rendering="crispEdges" points="945.3,175.23 945.863,175.23 945.3,271.489"/>
<polygon fill="#0000ba" shape-rendering="crispEdges" points="945.863,175.23 946.426,175.23 945.863,271.489"/>
<polygon fill="#0000c8" shape-rendering="crispEdges" points="945.3,271.489 945.3,367.748 945.863,271.489"/>
<polygon fill="#0000ba" shape-rendering="crispEdges" points="945.863,175.23 945.863,271.489 945.3,271.489"/>
<polygon fill="#0000ac" shape-rendering="crispEdges" points="946.426,175.23 946.989,175.23 946.426,271.489"/>
<polygon fill="#00009e" shape-rendering="crispEdges" points="946.989,175.23 947.552,175.23 946.989,271.489"/>
<polygon fill="#0000ac" shape-rendering="crispEdges" points="946.426,271.489 946.426,367.748 946.989,271.489"/>
<polygon fill="#00009e" shape-rendering="crispEdges" points="946.989,175.23 946.989,271.489 946.426,271.489"/>
<polygon fill="#0000c8" shape-rendering="crispEdges" points="945.3,367.748 945.3,464.006 945.863,367.748"/>
<polygon fill="#0000c8" shape-rendering="crispEdges" points="945.3,464.006 945.3,560.265 945.863,464.006"/>
<polygon fill="#0000ba" shape-rendering="crispEdges" points="945.863,367.748 946.426,367.748 945.863,464.006"/>
<polygon fill="#0000c8" shape-rendering="crispEdges" points="945.3,464.006 945.863,464.006 945.863,367.748"/>
<polygon fill="#0000ac" shape-rendering="crispEdges" points="946.426,175.23 946.426,271.489 945.863,271.489"/>
<polygon fill="#0000ac" shape-rendering="crispEdges" points="946.426,271.489 946.426,367.748 945.863,367.748"/>
<polygon fill="#0000ba" shape-rendering="crispEdges" points="945.863,271.489 945.3,367.748 945.863,367.748"/>
<polygon fill="#0000ac" shape-rendering="crispEdges" points="946.426,271.489 945.863,367.748 945.863,271.489"/>
<polygon fill="#0000ff" shape-rendering="crispEdges" points="943.048,560.265 943.611,560.265 943.611,464.006"/>
<polygon fill="#0000f1" shape-rendering="crispEdges" points="943.611,560.265 944.174,560.265 944.174,464.006"/>
<polygon fill="#0000f1" shape-rendering="crispEdges" points="943.611,464.006 944.174,367.748 944.174,464.006"/>
<polygon fill="#0000f1" shape-rendering="crispEdges" points="943.611,560.265 944.174,464.006 943.611,464.006"/>
<polygon fill="#0000e3" shape-rendering="crispEdges" points="944.174,560.265 944.737,560.265 944.737,464.006"/>
<polygon fill="#0000d5" shape-rendering="crispEdges" points="944.737,560.265 945.3,560.265 945.3,464.006"/>
<polygon fill="#0000d5" shape-rendering="crispEdges" points="944.737,464.006 945.3,367.748 945.3,464.006"/>
<polygon fill="#0000d5" shape-rendering="crispEdges" points="944.737,560.265 945.3,464.006 944.737,464.006"/>
<polygon fill="#0000e3" shape-rendering="crispEdges" points="944.174,367.748 944.737,271.489 944.737,367.748"/>
<polygon fill="#0000d5" shape-rendering="crispEdges" points="944.737,271.489 945.3,175.23 945.3,271.489"/>
<polygon fill="#0000d5" shape-rendering="crispEdges" points="944.737,367.748 945.3,367.748 945.3,271.489"/>
<polygon fill="#0000d5" shape-rendering="crispEdges" points="944.737,271.489 945.3,271.489 944.737,367.748"/>
<polygon fill="#0000e3" shape-rendering="crispEdges" points="944.174,560.265 944.737,464.006 944.174,464.006"/>
<polygon fill="#0000d5" shape-rendering="crispEdges" points="944.737,464.006 945.3,367.748 944.737,367.748"/>
<polygon fill="#0000e3" shape-rendering="crispEdges" points="944.174,464.006 944.174,367.748 944.737,367.748"/>
<polygon fill="#0000d5" shape-rendering="crispEdges" points="944.737,464.006 944.737,367.748 944.174,464.006"/>
<polygon fill="#0000ff" shape-rendering="crispEdges" points="943.048,945.3 943.611,945.3 943.611,849.041"/>
<polygon fill="#0000f1" shape-rendering="crispEdges" points="943.611,945.3 944.174,945.3 944.174,849.041"/>
<polygon fill="#0000f1" shape-rendering="crispEdges" points="943.611,849.041 944.174,752.782 944.174,849.041"/>
<polygon fill="#0000f1" shape-rendering="crispEdges" points="943.611,945.3 944.174,849.041 943.611,849.041"/>
<polygon fill="#0000e3" shape-rendering="crispEdges" points="944.174,945.3 944.737,945.3 944.737,849.041"/>
<polygon fill="#0000d5" shape-rendering="crispEdges" points="944.737,945.3 945.3,945.3 945.3,849.041"/>
<polygon fill="#0000d5" shape-rendering="crispEdges" points="944.737,849.041 945.3,752.782 945.3,849.041"/>
<polygon fill="#0000d5" shape-rendering="crispEdges" points="944.737,945.3 945.3,849.041 944.737,849.041"/>
<polygon fill="#0000e3" shape-rendering="crispEdges" points="944.174,752.782 944.737,656.524 944.737,752.782"/>
<polygon fill="#0000d5" shape-rendering="crispEdges" points="944.737,656.524 945.3,560.265 945.3,656.524"/>
<polygon fill="#0000d5" shape-rendering="crispEdges" points="944.737,752.782 945.3,752.782 945.3,656.524"/>
<polygon fill="#0000d5" shape-rendering="crispEdges" points="944.737,656.524 945.3,656.524 944.737,752.782"/>
<polygon fill="#0000e3" shape-rendering="crispEdges" points="944.174,945.3 944.737,849.041 944.174,849.041"/>
<polygon fill="#0000d5" shape-rendering="crispEdges" points="944.737,849.041 945.3,752.782 944.737,752.782"/>
<polygon fill="#0000e3" shape-rendering="crispEdges" points="944.174,849.041 944.174,752.782 944.737,752.782"/>
<polygon fill="#0000d5" shape-rendering="crispEdges" points="944.737,849.041 944.737,752.782 944.174,849.041"/>
<polygon fill="#0000c8" shape-rendering="crispEdges" points="945.3,945.3 945.863,945.3 945.863,849.041"/>
<polygon fill="#0000ba" shape-rendering="crispEdges" points="945.863,945.3 946.426,945.3 946.426,849.041"/>
<polygon fill="#0000ba" shape-rendering="crispEdges" points="945.863,849.041 946.426,752.782 946.426,849.041"/>
<polygon fill="#0000ba" shape-rendering="crispEdges" points="945.863,945.3 946.426,849.041 945.863,849.041"/>
<polygon fill="#0000ac" shape-rendering="crispEdges" points="946.426,945.3 946.989,945.3 946.989,849.041"/>
<polygon fill="#00009e" shape-rendering="crispEdges" points="946.989,945.3 947.552,945.3 947.552,849.041"/>
<polygon fill="#00009e" shape-rendering="crispEdges" points="946.989,849.041 947.552,752.782 947.552,849.041"/>
<polygon fill="#00009e" shape-rendering="crispEdges" points="946.989,945.3 947.552,849.041 946.989,849.041"/>
<polygon fill="#0000ac" shape-rendering="crispEdges" points="946.426,752.782 946.989,656.524 946.989,752.782"/>
<polygon fill="#00009e" shape-rendering="crispEdges" points="946.989,656.524 947.552,560.265 947.552,656.524"/>
<polygon fill="#00009e" shape-rendering="crispEdges" points="946.989,752.782 947.552,752.782 947.552,656.524"/>
<polygon fill="#00009e" shape-rendering="crispEdges" points="946.989,656.524 947.552,656.524 946.989,752.782"/>
<polygon fill="#0000ac" shape-rendering="crispEdges" points="946.426,945.3 946.989,849.041 946.426,849.041"/>
<polygon fill="#00009e" shape-rendering="crispEdges" points="946.989,849.041 947.552,752.782 946.989,752.782"/>
<polygon fill="#0000ac" shape-rendering="crispEdges" points="946.426,849.041 946.426,752.782 946.989,752.782"/>
<polygon fill="#00009e" shape-rendering="crispEdges" points="946.989,849.041 946.989,752.782 946.426,849.041"/>
<polygon fill="#0000c8" shape-rendering="crispEdges" points="945.3,560.265 945.863,464.006 945.863,560.265"/>
<polygon fill="#0000ba" shape-rendering="crispEdges" points="945.863,464.006 946.426,367.748 946.426,464.006"/>
<polygon fill="#0000ba" shape-rendering="crispEdges" points="945.863,560.265 946.426,560.265 946.426,464.006"/>
<polygon fill="#0000ba" shape-rendering="crispEdges" points="945.863,464.006 946.426,464.006 945.863,560.265"/>
<polygon fill="#0000ac" shape-rendering="crispEdges" points="946.426,367.748 946.989,271.489 946.989,367.748"/>
<polygon fill="#00009e" shape-rendering="crispEdges" points="946.989,271.489 947.552,175.23 947.552,271.489"/>
<polygon fill="#00009e" shape-rendering="crispEdges" points="946.989,367.748 947.552,367.748 947.552,271.489"/>
<polygon fill="#00009e" shape-rendering="crispEdges" points="946.989,271.489 947.552,271.489 946.989,367.748"/>
<polygon fill="#0000ac" shape-rendering="crispEdges" points="946.426,560.265 946.989,560.265 946.989,464.006"/>
<polygon fill="#00009e" shape-rendering="crispEdges" points="946.989,560.265 947.552,560.265 947.552,464.006"/>
<polygon fill="#00009e" shape-rendering="crispEdges" points="946.989,464.006 947.552,367.748 947.552,464.006"/>
<polygon fill="#00009e" shape-rendering="crispEdges" points="946.989,560.265 947.552,464.006 946.989,464.006"/>
<polygon fill="#0000ac" shape-rendering="crispEdges" points="946.426,367.748 946.989,367.748 946.426,464.006"/>
<polygon fill="#00009e" shape-rendering="crispEdges" points="946.989,367.748 947.552,367.748 946.989,464.006"/>
<polygon fill="#0000ac" shape-rendering="crispEdges" points="946.426,464.006 946.426,560.265 946.989,464.006"/>
<polygon fill="#00009e" shape-rendering="crispEdges" points="946.989,367.748 946.989,464.006 946.426,464.006"/>
<polygon fill="#0000c8" shape-rendering="crispEdges" points="945.3,945.3 945.863,849.041 945.3,849.041"/>
<polygon fill="#0000ba" shape-rendering="crispEdges" points="945.863,849.041 946.426,752.782 945.863,752.782"/>
<polygon fill="#0000c8" shape-rendering="crispEdges" points="945.3,849.041 945.3,752.782 945.863,752.782"/>
<polygon fill="#0000ba" shape-rendering="crispEdges" points="945.863,849.041 945.863,752.782 945.3,849.041"/>
<polygon fill="#0000ac" shape-rendering="crispEdges" points="946.426,752.782 946.989,656.524 946.426,656.524"/>
<polygon fill="#00009e" shape-rendering="crispEdges" points="946.989,656.524 947.552,560.265 946.989,560.265"/>
<polygon fill="#0000ac" shape-rendering="crispEdges" points="946.426,656.524 946.426,560.265 946.989,560.265"/>
<polygon fill="#00009e" shape-rendering="crispEdges" points="946.989,656.524 946.989,560.265 946.426,656.524"/>
<polygon fill="#0000c8" shape-rendering="crispEdges" points="945.3,752.782 945.3,656.524 945.863,656.524"/>
<polygon fill="#0000c8" shape-rendering="crispEdges" points="945.3,656.524 945.3,560.265 945.863,560.265"/>
<polygon fill="#0000ba" shape-rendering="crispEdges" points="945.863,656.524 946.426,560.265 945.863,560.265"/>
<polygon fill="#0000c8" shape-rendering="crispEdges" points="945.3,656.524 945.863,560.265 945.863,656.524"/>
<polygon fill="#0000ac" shape-rendering="crispEdges" points="946.426,752.782 946.426,656.524 945.863,752.782"/>
<polygon fill="#0000ac" shape-rendering="crispEdges" points="946.426,656.524 946.426,560.265 945.863,656.524"/>
<polygon fill="#0000ba" shape-rendering="crispEdges" points="945.863,752.782 945.3,752.782 945.863,656.524"/>
<polygon fill="#0000ac" shape-rendering="crispEdges" points="946.426,656.524 945.863,656.524 945.863,752.782"/>
<polygon fill="#ff0000" shape-rendering="crispEdges" points="175.23,939.752 149.535,944.697 175.23,943.652"/>
<polygon fill="#ff0000" shape-rendering="crispEdges" points="149.535,944.697 146.4,945.3 158.1,945.3"/>
<polygon fill="#ff0000" shape-rendering="crispEdges" points="149.535,944.697 158.1,945.3 175.23,943.652"/>
<polygon fill="#000065" shape-rendering="crispEdges" points="950.848,175.23 945.3,146.4 945.3,175.23"/>
<polygon fill="#0000ff" shape-rendering="crispEdges" points="939.752,175.23 945.3,175.23 945.3,146.4"/>
<polygon fill="#000066" fill-opacity="0.298039" shape-rendering="crispEdges" points="641.325,560.265 641.325,560.265 438.675,560.265"/>
<polygon fill="#000066" fill-opacity="0.298039" shape-rendering="crispEdges" points="641.325,560.265 438.675,560.265 438.675,560.265"/>
<polygon fill="#000000" fill-opacity="0.298039" shape-rendering="crispEdges" points="438.675,546.079 438.675,546.079 434.622,546.079"/>
<polygon fill="#000000" fill-opacity="0.298039" shape-rendering="crispEdges" points="438.675,546.079 434.622,546.079 434.622,546.079"/>
<polygon fill="#000000" fill-opacity="0.298039" shape-rendering="crispEdges" points="434.622,533.921 434.622,533.921 434.622,546.079"/>
<polygon fill="#000000" fill-opacity="0.298039" shape-rendering="crispEdges" points="434.622,533.921 434.622,546.079 434.622,546.079"/>
<polygon fill="#000000" fill-opacity="0.298039" shape-rendering="crispEdges" points="434.622,533.921 438.675,533.921 434.622,546.079"/>
<polygon fill="#000000" fill-opacity="0.298039" shape-rendering="crispEdges" points="438.675,533.921 438.675,546.079 434.622,546.079"/>
<polygon fill="#000000" fill-opacity="0.298039" shape-rendering="crispEdges" points="438.675,533.921 434.622,533.921 438.675,533.921"/>
<polygon fill="#000000" fill-opacity="0.298039" shape-rendering="crispEdges" points="434.622,533.921 434.622,533.921 438.675,533.921"/>
<polygon fill="#000000" fill-opacity="0.298039" shape-rendering="crispEdges" points="438.675,533.921 434.622,533.921 438.675,546.079"/>
<polygon fill="#000000" fill-opacity="0.298039" shape-rendering="crispEdges" points="434.622,533.921 434.622,546.079 438.675,546.079"/>
<polygon fill="#0000db" fill-opacity="0.298039" shape-rendering="crispEdges" points="438.675,519.735 438.675,519.735 438.675,560.265"/>
<polygon fill="#0000db" fill-opacity="0.298039" shape-rendering="crispEdges" points="438.675,519.735 438.675,560.265 438.675,560.265"/>
<polygon fill="#000000" fill-opacity="0.298039" shape-rendering="crispEdges" points="438.675,533.921 438.675,533.921 438.675,546.079"/>
<polygon fill="#000000" fill-opacity="0.298039" shape-rendering="crispEdges" points="438.675,533.921 438.675,546.079 438.675,546.079"/>
<polygon fill="#000066" fill-opacity="0.298039" shape-rendering="crispEdges" points="438.675,519.735 641.325,519.735 438.675,560.265"/>
<polygon fill="#000066" fill-opacity="0.298039" shape-rendering="crispEdges" points="641.325,519.735 641.325,560.265 438.675,560.265"/>
<polyline fill="none" stroke="#000000" stroke-width="1" stroke-linecap="butt" stroke-linejoin="miter" points="651.457,499.47 631.192,499.47"/>
<polyline fill="none" stroke="#000000" stroke-width="1" stroke-linecap="butt" stroke-linejoin="miter" points="641.325,489.338 641.325,509.603"/>
<polygon fill="#0000db" fill-opacity="0.298039" shape-rendering="crispEdges" points="641.325,519.735 438.675,519.735 641.325,519.735"/>
<polygon fill="#0000db" fill-opacity="0.298039" shape-rendering="crispEdges" points="438.675,519.735 438.675,519.735 641.325,519.735"/>
<polygon fill="#000066" fill-opacity="0.298039" shape-rendering="crispEdges" points="641.325,519.735 641.325,519.735 641.325,560.265"/>
<polygon fill="#000066" fill-opacity="0.298039" shape-rendering="crispEdges" points="641.325,519.735 641.325,560.265 641.325,560.265"/>
<polyline fill="none" stroke="#000000" stroke-width="1" stroke-linecap="butt" stroke-linejoin="miter" points="641.325,499.47 641.325,499.47"/>
<text fill="#000000" x="651.457" y="499.47" font-size="50" text-anchor="start" dy="0" font-family="Times">5 cm </text>
<polygon fill="#0000db" fill-opacity="0.298039" shape-rendering="crispEdges" points="641.325,519.735 438.675,519.735 641.325,560.265"/>
<polygon fill="#0000db" fill-opacity="0.298039" shape-rendering="crispEdges" points="438.675,519.735 438.675,560.265 641.325,560.265"/>
<polyline fill="none" stroke="#000000" stroke-width="1" stroke-linecap="butt" stroke-linejoin="miter" points="651.457,499.47 631.192,499.47"/>
<polyline fill="none" stroke="#000000" stroke-width="1" stroke-linecap="butt" stroke-linejoin="miter" points="641.325,489.338 641.325,509.603"/>
<polygon fill="#660000" shape-rendering="crispEdges" points="175.23,949.803 367.748,949.803 175.23,949.24"/>
<polygon fill="#660000" shape-rendering="crispEdges" points="367.748,949.803 560.265,949.803 367.748,949.24"/>
<polygon fill="#700000" shape-rendering="crispEdges" points="175.23,949.24 175.23,948.677 367.748,949.24"/>
<polygon fill="#660000" shape-rendering="crispEdges" points="367.748,949.803 367.748,949.24 175.23,949.24"/>
<polygon fill="#660000" shape-rendering="crispEdges" points="560.265,949.803 752.782,949.803 560.265,949.24"/>
<polygon fill="#660000" shape-rendering="crispEdges" points="752.782,949.803 945.3,949.803 752.782,949.24"/>
<polygon fill="#700000" shape-rendering="crispEdges" points="560.265,949.24 560.265,948.677 752.782,949.24"/>
<polygon fill="#660000" shape-rendering="crispEdges" points="752.782,949.803 752.782,949.24 560.265,949.24"/>
<polygon fill="#7b0000" shape-rendering="crispEdges" points="175.23,948.677 175.23,948.115 367.748,948.677"/>
<polygon fill="#860000" shape-rendering="crispEdges" points="175.23,948.115 175.23,947.552 367.748,948.115"/>
<polygon fill="#7b0000" shape-rendering="crispEdges" points="367.748,948.677 560.265,948.677 367.748,948.115"/>
<polygon fill="#860000" shape-rendering="crispEdges" points="175.23,948.115 367.748,948.115 367.748,948.677"/>
<polygon fill="#660000" shape-rendering="crispEdges" points="560.265,949.803 560.265,949.24 367.748,949.24"/>
<polygon fill="#700000" shape-rendering="crispEdges" points="560.265,949.24 560.265,948.677 367.748,948.677"/>
<polygon fill="#700000" shape-rendering="crispEdges" points="367.748,949.24 175.23,948.677 367.748,948.677"/>
<polygon fill="#700000" shape-rendering="crispEdges" points="560.265,949.24 367.748,948.677 367.748,949.24"/>
<polygon fill="#660000" shape-rendering="crispEdges" points="945.3,949.803 945.3,949.24 752.782,949.24"/>
<polygon fill="#700000" shape-rendering="crispEdges" points="945.3,949.24 945.3,948.677 752.782,948.677"/>
<polygon fill="#700000" shape-rendering="crispEdges" points="752.782,949.24 560.265,948.677 752.782,948.677"/>
<polygon fill="#700000" shape-rendering="crispEdges" points="945.3,949.24 752.782,948.677 752.782,949.24"/>
<polygon fill="#7b0000" shape-rendering="crispEdges" points="945.3,948.677 945.3,948.115 752.782,948.115"/>
<polygon fill="#860000" shape-rendering="crispEdges" points="945.3,948.115 945.3,947.552 752.782,947.552"/>
<polygon fill="#860000" shape-rendering="crispEdges" points="752.782,948.115 560.265,947.552 752.782,947.552"/>
<polygon fill="#860000" shape-rendering="crispEdges" points="945.3,948.115 752.782,947.552 752.782,948.115"/>
<polygon fill="#7b0000" shape-rendering="crispEdges" points="560.265,948.677 367.748,948.115 560.265,948.115"/>
<polygon fill="#860000" shape-rendering="crispEdges" points="367.748,948.115 175.23,947.552 367.748,947.552"/>
<polygon fill="#860000" shape-rendering="crispEdges" points="560.265,948.115 560.265,947.552 367.748,947.552"/>
<polygon fill="#860000" shape-rendering="crispEdges" points="367.748,948.115 367.748,947.552 560.265,948.115"/>
<polygon fill="#7b0000" shape-rendering="crispEdges" points="945.3,948.677 752.782,948.115 752.782,948.677"/>
<polygon fill="#860000" shape-rendering="crispEdges" points="752.782,948.115 560.265,947.552 560.265,948.115"/>
<polygon fill="#7b0000" shape-rendering="crispEdges" points="752.782,948.677 560.265,948.677 560.265,948.115"/>
<polygon fill="#860000" shape-rendering="crispEdges" points="752.782,948.115 560.265,948.115 752.782,948.677"/>
<polygon fill="#ff0000" shape-rendering="crispEdges" points="175.23,943.652 158.1,945.3 175.23,945.3"/>
<polygon fill="#660000" shape-rendering="crispEdges" points="175.23,957 175.23,945.3 134.7,945.3"/>
<polygon fill="#00db00" shape-rendering="crispEdges" points="945.3,949.803 949.2,947.552 945.3,945.3"/>
<polygon fill="#00db00" shape-rendering="crispEdges" points="949.2,947.552 949.2,943.048 945.3,945.3"/>
<polygon fill="#00db00" shape-rendering="crispEdges" points="949.2,943.048 945.3,940.797 945.3,945.3"/>
<polygon fill="#00db00" shape-rendering="crispEdges" points="945.3,940.797 941.4,943.048 945.3,945.3"/>
<polygon fill="#00db00" shape-rendering="crispEdges" points="941.4,943.048 941.4,947.552 945.3,945.3"/>
<polygon fill="#00db00" shape-rendering="crispEdges" points="941.4,947.552 945.3,949.803 945.3,945.3"/>
<polygon fill="#00a300" shape-rendering="crispEdges" points="958.81,945.3 938.545,933.6 945.3,945.3"/>
<polygon fill="#00ed00" shape-rendering="crispEdges" points="938.545,933.6 938.545,957 945.3,945.3"/>
<polygon fill="#006600" shape-rendering="crispEdges" points="938.545,957 958.81,945.3 945.3,945.3"/>
</g>
</svg>
